<svg width="19" height="19" viewBox="0 0 19 19" fill="none" xmlns="http://www.w3.org/2000/svg">
<path d="M12.9465 5.47222C12.9465 6.47415 12.5571 7.43504 11.8638 8.14352C11.1706 8.85199 10.2304 9.25 9.25 9.25C8.26962 9.25 7.3294 8.85199 6.63616 8.14352C5.94293 7.43504 5.55348 6.47415 5.55348 5.47222M1.518 4.90686L0.871106 12.8402C0.732138 14.5445 0.662654 15.3966 0.944543 16.054C1.19221 16.6315 1.62133 17.1081 2.16394 17.4083C2.78152 17.75 3.61822 17.75 5.29161 17.75H13.2084C14.8818 17.75 15.7185 17.75 16.3361 17.4083C16.8787 17.1081 17.3078 16.6315 17.5555 16.054C17.8373 15.3966 17.7679 14.5445 17.6289 12.8402L16.982 4.90686C16.8624 3.44049 16.8026 2.7073 16.4849 2.15236C16.2051 1.66369 15.7885 1.2719 15.2887 1.02752C14.7212 0.750001 14.0013 0.750001 12.5615 0.750001L5.9385 0.75C4.4987 0.75 3.77879 0.75 3.21128 1.02752C2.71154 1.2719 2.2949 1.66369 2.01509 2.15236C1.69735 2.7073 1.63757 3.44049 1.518 4.90686Z" stroke="#4A7C59" stroke-width="1.5" stroke-linecap="round" stroke-linejoin="round"/>
</svg>
