<svg width="50" height="50" viewBox="0 0 50 50" fill="none" xmlns="http://www.w3.org/2000/svg">
<rect width="49.7777" height="49.7777" rx="24.8888" fill="url(#paint0_radial_60_10855)" fill-opacity="0.5"/>
<rect width="49.7777" height="49.7777" rx="24.8888" fill="url(#paint1_radial_60_10855)" fill-opacity="0.8"/>
<rect x="0.444444" y="0.444444" width="48.8888" height="48.8888" rx="24.4444" stroke="white" stroke-opacity="0.24" stroke-width="0.888889"/>
<g filter="url(#filter0_d_60_10855)">
<path d="M34.6042 20.7605C37.0929 20.7606 39.1107 22.6087 39.111 24.8875C39.111 27.1665 37.0931 29.0143 34.6042 29.0144C34.2681 29.0144 33.9407 28.9797 33.6257 28.9158C30.0524 28.5048 25.7719 25.5761 24.9811 25.0164C25.5092 25.7591 28.1451 29.5942 28.7927 33.0164C28.9668 33.5132 29.0632 34.0527 29.0632 34.616C29.0628 37.0979 27.2109 39.1106 24.9265 39.1111C22.6417 39.1111 20.7891 37.0982 20.7888 34.616C20.7888 34.2808 20.8234 33.9536 20.8874 33.6394C21.3002 30.0692 24.2456 25.7903 24.7995 25.0125C24.0176 25.5662 19.7304 28.5043 16.152 28.9158C15.8371 28.9796 15.5094 29.0144 15.1735 29.0144C12.6849 29.0141 10.6668 27.1663 10.6667 24.8875C10.6671 22.6088 12.685 20.7618 15.1735 20.7615C15.7371 20.7615 16.2768 20.857 16.7741 21.03C20.3734 21.7065 24.4286 24.5682 24.8835 24.8953C24.8866 24.891 24.8889 24.889 24.8893 24.8884C24.89 24.8893 24.8911 24.8914 24.8932 24.8943C25.3458 24.5689 29.4046 21.7061 33.0056 21.03C33.5025 20.8573 34.0411 20.7605 34.6042 20.7605ZM24.8522 10.6667C27.1372 10.6667 28.9899 12.6793 28.9899 15.1619C28.9899 15.5017 28.9542 15.8329 28.8884 16.1511C28.4277 20.0745 24.9205 24.8461 24.8893 24.8884C24.8699 24.862 21.7004 20.5528 20.9841 16.7546C20.8113 16.2596 20.7156 15.7227 20.7155 15.1619C20.7156 12.6797 22.5677 10.6673 24.8522 10.6667Z" fill="url(#paint2_radial_60_10855)"/>
</g>
<defs>
<filter id="filter0_d_60_10855" x="5.33335" y="8.88897" width="39.111" height="39.111" filterUnits="userSpaceOnUse" color-interpolation-filters="sRGB">
<feFlood flood-opacity="0" result="BackgroundImageFix"/>
<feColorMatrix in="SourceAlpha" type="matrix" values="0 0 0 0 0 0 0 0 0 0 0 0 0 0 0 0 0 0 127 0" result="hardAlpha"/>
<feOffset dy="3.55556"/>
<feGaussianBlur stdDeviation="2.66667"/>
<feComposite in2="hardAlpha" operator="out"/>
<feColorMatrix type="matrix" values="0 0 0 0 0 0 0 0 0 0 0 0 0 0 0 0 0 0 0.1 0"/>
<feBlend mode="normal" in2="BackgroundImageFix" result="effect1_dropShadow_60_10855"/>
<feBlend mode="normal" in="SourceGraphic" in2="effect1_dropShadow_60_10855" result="shape"/>
</filter>
<radialGradient id="paint0_radial_60_10855" cx="0" cy="0" r="1" gradientUnits="userSpaceOnUse" gradientTransform="translate(24.8888 15.1666) rotate(-90) scale(25.2777 33.3032)">
<stop stop-color="#F3F3F7" stop-opacity="0"/>
<stop offset="1" stop-color="white" stop-opacity="0.3"/>
</radialGradient>
<radialGradient id="paint1_radial_60_10855" cx="0" cy="0" r="1" gradientUnits="userSpaceOnUse" gradientTransform="translate(24.8888 15.5555) rotate(-90) scale(25.6666 33.8156)">
<stop stop-color="#F3F3F7" stop-opacity="0"/>
<stop offset="1" stop-color="white" stop-opacity="0.3"/>
</radialGradient>
<radialGradient id="paint2_radial_60_10855" cx="0" cy="0" r="1" gradientUnits="userSpaceOnUse" gradientTransform="translate(24.8888 24.8889) rotate(90) scale(47.699)">
<stop stop-color="white"/>
<stop offset="1" stop-color="white"/>
</radialGradient>
</defs>
</svg>
